<svg xmlns="http://www.w3.org/2000/svg" xmlns:xlink="http://www.w3.org/1999/xlink" viewBox="0 0 229.47 84.2"><defs><style>.cls-1{fill:url(#radial-gradient);}.cls-2{fill:#fff;}.cls-3{fill:#003d58;}.cls-4{fill:#818385;}</style><radialGradient id="radial-gradient" cx="168.89" cy="42.1" r="42.1" gradientUnits="userSpaceOnUse"><stop offset="0.27" stop-color="#f9a51a"/><stop offset="0.36" stop-color="#fab747"/><stop offset="0.49" stop-color="#fccd7f"/><stop offset="0.61" stop-color="#fddfad"/><stop offset="0.72" stop-color="#feedd0"/><stop offset="0.83" stop-color="#fef7ea"/><stop offset="0.92" stop-color="#fffdfa"/><stop offset="1" stop-color="#fff"/></radialGradient></defs><title>Asset 1</title><g id="Layer_2" data-name="Layer 2"><g id="Layer_1-2" data-name="Layer 1"><circle class="cls-1" cx="168.89" cy="42.1" r="42.1"/><path class="cls-2" d="M168.85,51.78a9.64,9.64,0,0,1-10-9.68v-.05a10,10,0,0,1,20,0v0A9.73,9.73,0,0,1,168.85,51.78Z"/><path class="cls-3" d="M8,51.73a12,12,0,0,1-8-3l2.45-2.93a8.64,8.64,0,0,0,5.61,2.28c1.7,0,2.72-.67,2.72-1.77v-.06c0-1.05-.65-1.58-3.79-2.39-3.79-1-6.24-2-6.24-5.75v-.05c0-3.42,2.74-5.68,6.59-5.68a10.86,10.86,0,0,1,7,2.4l-2.15,3.11A8.89,8.89,0,0,0,7.28,36c-1.58,0-2.42.72-2.42,1.64v0c0,1.24.81,1.64,4.06,2.47,3.82,1,6,2.37,6,5.65v0C14.89,49.63,12,51.73,8,51.73Z"/><path class="cls-3" d="M33.87,51.75c-5.06,0-8.15-2.82-8.15-8.36V32.64h4.14V43.29c0,3.06,1.54,4.65,4.06,4.65S38,46.4,38,43.42V32.64h4.14V43.26C42.12,49,38.92,51.75,33.87,51.75Z"/><path class="cls-3" d="M61.15,45.81H58v5.65H53.87V32.64h7.68c4.49,0,7.21,2.66,7.21,6.51v.05C68.76,43.55,65.37,45.81,61.15,45.81Zm3.41-6.58c0-1.86-1.29-2.85-3.36-2.85H58v5.75h3.28c2.07,0,3.27-1.24,3.27-2.85Z"/><path class="cls-3" d="M79.35,51.46V32.64H93.54v3.68H83.46v3.82h8.87v3.68H83.46v4H93.68v3.68Z"/><path class="cls-3" d="M116.31,51.46l-4-6H109v6h-4.13V32.64h8.6c4.43,0,7.09,2.34,7.09,6.21v.06a5.85,5.85,0,0,1-4,5.83l4.6,6.72Zm.08-12.39c0-1.78-1.24-2.69-3.25-2.69H109v5.4h4.2c2,0,3.17-1.07,3.17-2.66Z"/><path class="cls-3" d="M144.15,51.46,135,39.5v12H131V32.64h3.82l8.81,11.59V32.64h4.09V51.46Z"/><path class="cls-3" d="M197.76,51.59h-3.65l-7.61-19h4.57L196,45.89l4.92-13.25h4.46Z"/><path class="cls-3" d="M229.47,51.59H225l-4.92-13.25-4.92,13.25H210.6l7.61-19h3.65Z"/><path class="cls-4" d="M.84,63.94V57H2.38v5.59H5.87v1.4Z"/><path class="cls-4" d="M7.28,63.94V57h5.28v1.37H8.81v1.42h3.3V61.1H8.81v1.47h3.8v1.37Z"/><path class="cls-4" d="M19.14,63.94l-3.39-4.45v4.45H14.23V57h1.42l3.28,4.3V57h1.52v7Z"/><path class="cls-4" d="M25.11,63.94H22.38V57h2.73a3.49,3.49,0,0,1,3.72,3.47v0A3.5,3.5,0,0,1,25.11,63.94Zm2.11-3.5a2,2,0,0,0-2.11-2.1H23.92v4.21h1.19a2,2,0,0,0,2.11-2.09Z"/><path class="cls-4" d="M30.52,63.94V57h1.54v7Z"/><path class="cls-4" d="M39,63.94l-3.39-4.45v4.45H34.06V57h1.42l3.28,4.3V57h1.52v7Z"/><path class="cls-4" d="M45.58,64.06a3.5,3.5,0,0,1-3.68-3.6v0a3.59,3.59,0,0,1,3.67-3.61,3.84,3.84,0,0,1,2.75,1l-1,1.17a2.58,2.58,0,0,0-1.83-.71,2.1,2.1,0,0,0-2,2.17v0a2.1,2.1,0,0,0,2.12,2.22,2.46,2.46,0,0,0,1.45-.42v-1H45.53V59.91h3v3A4.54,4.54,0,0,1,45.58,64.06Z"/></g></g></svg>